<svg width="747" height="743" xmlns="http://www.w3.org/2000/svg" xmlns:xlink="http://www.w3.org/1999/xlink" xml:space="preserve" overflow="hidden"><g transform="translate(-1650 -366)"><g><path d="M1654 491.503C1654 423.294 1709.29 368 1777.5 368L2271.5 368C2339.71 368 2395 423.294 2395 491.503L2395 985.497C2395 1053.71 2339.71 1109 2271.5 1109L1777.5 1109C1709.29 1109 1654 1053.71 1654 985.497Z" fill="#FFF2CC" fill-rule="evenodd" fill-opacity="1"/><g><g><g><path d="M2150.31 466.875C2150.31 443.161 2169.54 423.937 2193.25 423.937L2279.12 423.937C2302.84 423.937 2322.06 443.161 2322.06 466.875L2322.06 982.125 2343.53 982.125C2355.39 982.125 2365 991.737 2365 1003.59 2365 1015.45 2355.39 1025.06 2343.53 1025.06L1699.47 1025.06C1687.61 1025.06 1678 1015.45 1678 1003.59 1678 991.737 1687.61 982.125 1699.47 982.125L1720.94 982.125 1720.94 853.312C1720.94 829.599 1740.16 810.375 1763.87 810.375L1849.75 810.375C1873.46 810.375 1892.69 829.599 1892.69 853.312L1892.69 982.125 1935.62 982.125 1935.62 681.562C1935.62 657.849 1954.85 638.625 1978.56 638.625L2064.44 638.625C2088.15 638.625 2107.38 657.849 2107.38 681.562L2107.38 982.125 2150.31 982.125ZM2193.25 982.125 2279.12 982.125 2279.12 466.875 2193.25 466.875ZM2064.44 982.125 2064.44 681.562 1978.56 681.562 1978.56 982.125ZM1849.75 982.125 1849.75 853.312 1763.87 853.312 1763.87 982.125Z" fill="#0070C0" fill-rule="nonzero" fill-opacity="1"/></g></g></g></g></g></svg>