<svg width="1884" height="1595" xmlns="http://www.w3.org/2000/svg" xmlns:xlink="http://www.w3.org/1999/xlink" xml:space="preserve" overflow="hidden"><defs><clipPath id="clip0"><rect x="1848" y="1249" width="65" height="60"/></clipPath><clipPath id="clip1"><rect x="1848" y="1249" width="65" height="60"/></clipPath><clipPath id="clip2"><rect x="1848" y="1249" width="65" height="60"/></clipPath></defs><g transform="translate(-1388 -357)"><g><rect x="1389" y="361" width="1840" height="1584" fill="#FFFFFF" fill-opacity="1"/><path d="M2348.84 1731.32 2295.98 1665.13 2301.35 1660.84 2354.22 1727.03ZM2298.66 1662.99 2292.2 1691.61 2281.5 1641.5 2328.01 1663.01Z" fill="#000000" fill-rule="nonzero" fill-opacity="1"/><path d="M3.4375-1.27028e-05 3.43776 70.1611-3.43724 70.1611-3.4375 1.27028e-05ZM0.00025927 70.1611 22.9169 51.8277 0.000360892 97.6611-22.9165 51.8278Z" fill="#000000" fill-rule="nonzero" fill-opacity="1" transform="matrix(1 0 0 -1 1994.5 944.161)"/><path d="M2188.32 1481.29 2106.9 1423.26 2110.89 1417.66 2192.31 1475.69ZM2108.89 1420.46 2110.52 1449.76 2086.5 1404.5 2137.12 1412.44Z" fill="#000000" fill-rule="nonzero" fill-opacity="1"/><path d="M1.95341-2.82853 110.399 72.065 106.492 77.7221-1.95341 2.82853ZM108.446 74.8936 106.383 45.6185 131.074 90.5208 80.3374 83.3323Z" fill="#000000" fill-rule="nonzero" fill-opacity="1" transform="matrix(1 0 0 -1 1966.5 1732.02)"/><path d="M3.4375-1.18297e-05 3.43777 77.3685-3.43723 77.3685-3.4375 1.18297e-05ZM0.000266254 77.3685 22.9169 59.0351 0.000360892 104.868-22.9165 59.0352Z" fill="#000000" fill-rule="nonzero" fill-opacity="1" transform="matrix(1 0 0 -1 1994.5 1240.37)"/><path d="M3.4375-1.22572e-05 3.43776 73.7115-3.43724 73.7116-3.4375 1.22572e-05ZM0.000262835 73.7115 22.9169 55.3781 0.000360892 101.212-22.9165 55.3783Z" fill="#000000" fill-rule="nonzero" fill-opacity="1" transform="matrix(1 0 0 -1 1994.5 655.711)"/><path d="M1816.5 1838.5C1816.5 1779.41 1883.88 1731.5 1967 1731.5 2050.12 1731.5 2117.5 1779.41 2117.5 1838.5 2117.5 1897.59 2050.12 1945.5 1967 1945.5 1883.88 1945.5 1816.5 1897.59 1816.5 1838.5Z" stroke="#000000" stroke-width="6.875" stroke-linecap="butt" stroke-linejoin="miter" stroke-miterlimit="8" stroke-opacity="1" fill="#F2F2F2" fill-rule="evenodd" fill-opacity="1"/><path d="M2381.5 703.016C2381.5 671.251 2407.25 645.5 2439.02 645.5L2976.98 645.5C3008.75 645.5 3034.5 671.251 3034.5 703.016L3034.5 1529.98C3034.5 1561.75 3008.75 1587.5 2976.98 1587.5L2439.02 1587.5C2407.25 1587.5 2381.5 1561.75 2381.5 1529.98Z" stroke="#000000" stroke-width="6.875" stroke-linecap="butt" stroke-linejoin="miter" stroke-miterlimit="8" stroke-dasharray="27.5 20.625" stroke-opacity="1" fill="#FFFFFF" fill-rule="evenodd" fill-opacity="1"/><rect x="2319" y="873" width="147" height="295" fill="#FFFFFF" fill-opacity="1"/><path d="M0 0 387.085 71.321" stroke="#000000" stroke-width="6.875" stroke-linecap="butt" stroke-linejoin="miter" stroke-miterlimit="8" stroke-dasharray="27.5 20.625" stroke-opacity="1" fill="none" fill-rule="evenodd" transform="matrix(-1 0 0 1 2381.58 873.5)"/><path d="M2381.58 1168.36 1994.5 1135.5" stroke="#000000" stroke-width="6.875" stroke-linecap="butt" stroke-linejoin="miter" stroke-miterlimit="8" stroke-dasharray="27.5 20.625" stroke-opacity="1" fill="none" fill-rule="evenodd"/><path d="M2.24983-2.59898 66.9314 53.3933 62.4318 58.5912-2.24983 2.59898ZM64.6816 55.9923 65.8192 26.6667 85.4734 73.9909 35.8215 61.3197Z" fill="#000000" fill-rule="nonzero" fill-opacity="1" transform="matrix(1 0 0 -1 1816.5 1478.49)"/><path d="M2481.5 1093.5C2481.5 1034.41 2586.04 986.5 2715 986.5 2843.96 986.5 2948.5 1034.41 2948.5 1093.5 2948.5 1152.59 2843.96 1200.5 2715 1200.5 2586.04 1200.5 2481.5 1152.59 2481.5 1093.5Z" stroke="#000000" stroke-width="6.875" stroke-linecap="butt" stroke-linejoin="miter" stroke-miterlimit="8" stroke-opacity="1" fill="#F2C572" fill-rule="evenodd" fill-opacity="1"/><path d="M3.4375-1.30161e-05 3.43776 67.8099-3.43724 67.8099-3.4375 1.30161e-05ZM0.000256763 67.8099 22.9169 49.4765 0.000360892 95.3099-22.9165 49.4766Z" fill="#000000" fill-rule="nonzero" fill-opacity="1" transform="matrix(1 0 0 -1 2714.5 1295.81)"/><path d="M2713.61 679.537 2711.71 598.073 2718.58 597.912 2720.49 679.376ZM2715.14 597.993 2692.66 616.857 2714.5 570.5 2738.48 615.785Z" fill="#000000" fill-rule="nonzero" fill-opacity="1"/><path d="M3.4375-4.60902e-05 3.43894 107.08-3.43606 107.08-3.4375 4.60902e-05ZM0.00143574 107.08 22.9179 88.7467 0.00180446 134.58-22.9155 88.7474Z" fill="#000000" fill-rule="nonzero" fill-opacity="1" transform="matrix(1 0 0 -1 2714.5 1644.08)"/><path d="M3.43623-0.0934644 5.23605 66.0773-1.6364 66.2642-3.43623 0.0934644ZM1.79982 66.1708 24.2095 47.2211 2.54754 93.6606-21.6068 48.4673Z" fill="#000000" fill-rule="nonzero" fill-opacity="1" transform="matrix(1 0 0 -1 2714.5 987.161)"/><rect x="2849" y="1508" width="419" height="116" fill="#FFFFFF" fill-opacity="1"/><path d="M2882.38 1526.17 3147.07 1526.17 3147.07 1607.17 2882.38 1607.17Z" fill="#91E702" fill-rule="evenodd" fill-opacity="1"/><text fill="#000000" fill-opacity="1" font-family="Consolas,Consolas_MSFontService,sans-serif" font-style="italic" font-variant="normal" font-weight="700" font-stretch="normal" font-size="69" text-anchor="start" direction="ltr" writing-mode="lr-tb" unicode-bidi="normal" text-decoration="none" transform="matrix(1 0 0 1 2882.38 1589)">predict</text><text fill="#000000" fill-opacity="1" font-family="Times New Roman,Times New Roman_MSFontService,sans-serif" font-style="normal" font-variant="normal" font-weight="400" font-stretch="normal" font-size="78" text-anchor="start" direction="ltr" writing-mode="lr-tb" unicode-bidi="normal" text-decoration="none" transform="matrix(1 0 0 1 2558.37 1120)">Preprocess</text><text fill="#000000" fill-opacity="1" font-family="Times New Roman,Times New Roman_MSFontService,sans-serif" font-style="normal" font-variant="normal" font-weight="400" font-stretch="normal" font-size="78" text-anchor="start" direction="ltr" writing-mode="lr-tb" unicode-bidi="normal" text-decoration="none" transform="matrix(1 0 0 1 2913.79 1740)">Input</text><text fill="#000000" fill-opacity="1" font-family="Times New Roman,Times New Roman_MSFontService,sans-serif" font-style="normal" font-variant="normal" font-weight="400" font-stretch="normal" font-size="78" text-anchor="start" direction="ltr" writing-mode="lr-tb" unicode-bidi="normal" text-decoration="none" transform="matrix(1 0 0 1 2905.19 1834)">Batch</text><path d="M2832 1645C2843.87 1645 2853.5 1650.19 2853.5 1656.6L2853.5 1725.97C2853.5 1732.38 2863.13 1737.57 2875 1737.57 2863.13 1737.57 2853.5 1742.76 2853.5 1749.17L2853.5 1823.4C2853.5 1829.81 2843.87 1835 2832 1835" stroke="#000000" stroke-width="5.72917" stroke-linecap="butt" stroke-linejoin="miter" stroke-miterlimit="8" stroke-opacity="1" fill="none" fill-rule="evenodd"/><rect x="2614.5" y="1644.5" width="201" height="191" stroke="#44546A" stroke-width="4.58333" stroke-linecap="butt" stroke-linejoin="miter" stroke-miterlimit="8" stroke-opacity="1" fill="#D9D9D9" fill-opacity="1"/><rect x="2629.5" y="1663.5" width="171" height="26.0001" stroke="#44546A" stroke-width="4.58333" stroke-linecap="butt" stroke-linejoin="miter" stroke-miterlimit="8" stroke-opacity="1" fill="#F2F2F2" fill-opacity="1"/><rect x="2629.5" y="1707.5" width="172" height="26.0001" stroke="#44546A" stroke-width="4.58333" stroke-linecap="butt" stroke-linejoin="miter" stroke-miterlimit="8" stroke-opacity="1" fill="#F2F2F2" fill-opacity="1"/><rect x="2629.5" y="1753.5" width="171" height="26.0001" stroke="#44546A" stroke-width="4.58333" stroke-linecap="butt" stroke-linejoin="miter" stroke-miterlimit="8" stroke-opacity="1" fill="#F2F2F2" fill-opacity="1"/><rect x="2629.5" y="1794.5" width="171" height="26.0001" stroke="#44546A" stroke-width="4.58333" stroke-linecap="butt" stroke-linejoin="miter" stroke-miterlimit="8" stroke-opacity="1" fill="#F2F2F2" fill-opacity="1"/><path d="M2199.5 1836C2199.5 1777.18 2267.78 1729.5 2352 1729.5 2436.22 1729.5 2504.5 1777.18 2504.5 1836 2504.5 1894.82 2436.22 1942.5 2352 1942.5 2267.78 1942.5 2199.5 1894.82 2199.5 1836Z" stroke="#000000" stroke-width="6.875" stroke-linecap="butt" stroke-linejoin="miter" stroke-miterlimit="8" stroke-opacity="1" fill="#F2F2F2" fill-rule="evenodd" fill-opacity="1"/><path d="M1453.5 1841C1453.5 1784.39 1520.88 1738.5 1604 1738.5 1687.12 1738.5 1754.5 1784.39 1754.5 1841 1754.5 1897.61 1687.12 1943.5 1604 1943.5 1520.88 1943.5 1453.5 1897.61 1453.5 1841Z" stroke="#000000" stroke-width="6.875" stroke-linecap="butt" stroke-linejoin="miter" stroke-miterlimit="8" stroke-opacity="1" fill="#F2F2F2" fill-rule="evenodd" fill-opacity="1"/><text fill="#000000" fill-opacity="1" font-family="Times New Roman,Times New Roman_MSFontService,sans-serif" font-style="normal" font-variant="normal" font-weight="400" font-stretch="normal" font-size="78" text-anchor="start" direction="ltr" writing-mode="lr-tb" unicode-bidi="normal" text-decoration="none" transform="matrix(1 0 0 1 1512.06 1866)">hotels</text><path d="M1864.5 1336.5C1864.5 1283.48 1922.7 1240.5 1994.5 1240.5 2066.3 1240.5 2124.5 1283.48 2124.5 1336.5 2124.5 1389.52 2066.3 1432.5 1994.5 1432.5 1922.7 1432.5 1864.5 1389.52 1864.5 1336.5Z" stroke="#000000" stroke-width="6.875" stroke-linecap="butt" stroke-linejoin="miter" stroke-miterlimit="8" stroke-opacity="1" fill="#F2F2F2" fill-rule="evenodd" fill-opacity="1"/><path d="M1943.5 1304.5 1994.5 1337 1943.5 1369.5Z" stroke="#000000" stroke-width="9.16667" stroke-linecap="butt" stroke-linejoin="miter" stroke-miterlimit="8" stroke-opacity="1" fill="#F2F2F2" fill-rule="evenodd" fill-opacity="1"/><path d="M2044.5 1369.5 1994.5 1337 2044.5 1304.5Z" stroke="#000000" stroke-width="9.16667" stroke-linecap="butt" stroke-linejoin="miter" stroke-miterlimit="8" stroke-opacity="1" fill="#F2F2F2" fill-rule="evenodd" fill-opacity="1"/><path d="M1686.5 1574C1686.5 1521.26 1744.7 1478.5 1816.5 1478.5 1888.3 1478.5 1946.5 1521.26 1946.5 1574 1946.5 1626.74 1888.3 1669.5 1816.5 1669.5 1744.7 1669.5 1686.5 1626.74 1686.5 1574Z" stroke="#000000" stroke-width="6.875" stroke-linecap="butt" stroke-linejoin="miter" stroke-miterlimit="8" stroke-opacity="1" fill="#F2F2F2" fill-rule="evenodd" fill-opacity="1"/><path d="M1864.5 1040C1864.5 987.257 1922.7 944.5 1994.5 944.5 2066.3 944.5 2124.5 987.257 2124.5 1040 2124.5 1092.74 2066.3 1135.5 1994.5 1135.5 1922.7 1135.5 1864.5 1092.74 1864.5 1040Z" stroke="#000000" stroke-width="6.875" stroke-linecap="butt" stroke-linejoin="miter" stroke-miterlimit="8" stroke-opacity="1" fill="#BFBFBF" fill-rule="evenodd" fill-opacity="1"/><text fill="#000000" fill-opacity="1" font-family="Cambria Math,Cambria Math_MSFontService,sans-serif" font-style="normal" font-variant="normal" font-weight="400" font-stretch="normal" font-size="165" text-anchor="start" direction="ltr" writing-mode="lr-tb" unicode-bidi="normal" text-decoration="none" transform="matrix(1 0 0 1 1769.56 1612)">ğœ</text><path d="M1864.5 751C1864.5 698.257 1922.7 655.5 1994.5 655.5 2066.3 655.5 2124.5 698.257 2124.5 751 2124.5 803.743 2066.3 846.5 1994.5 846.5 1922.7 846.5 1864.5 803.743 1864.5 751Z" stroke="#000000" stroke-width="6.875" stroke-linecap="butt" stroke-linejoin="miter" stroke-miterlimit="8" stroke-opacity="1" fill="#F2F2F2" fill-rule="evenodd" fill-opacity="1"/><path d="M2059.5 1574C2059.5 1521.26 2117.93 1478.5 2190 1478.5 2262.07 1478.5 2320.5 1521.26 2320.5 1574 2320.5 1626.74 2262.07 1669.5 2190 1669.5 2117.93 1669.5 2059.5 1626.74 2059.5 1574Z" stroke="#000000" stroke-width="6.875" stroke-linecap="butt" stroke-linejoin="miter" stroke-miterlimit="8" stroke-opacity="1" fill="#F2F2F2" fill-rule="evenodd" fill-opacity="1"/><path d="M2.14899-2.68295 101.601 76.976 97.3029 82.3419-2.14899 2.68295ZM99.4519 79.659 99.4694 50.3113 120.916 96.8509 70.8162 86.084Z" fill="#000000" fill-rule="nonzero" fill-opacity="1" transform="matrix(1 0 0 -1 1603.5 1738.35)"/><path d="M2483.5 786.5C2483.5 727.406 2588.27 679.5 2717.5 679.5 2846.73 679.5 2951.5 727.406 2951.5 786.5 2951.5 845.594 2846.73 893.5 2717.5 893.5 2588.27 893.5 2483.5 845.594 2483.5 786.5Z" stroke="#000000" stroke-width="6.875" stroke-linecap="butt" stroke-linejoin="miter" stroke-miterlimit="8" stroke-opacity="1" fill="#8FAADC" fill-rule="evenodd" fill-opacity="1"/><path d="M2481.5 1403C2481.5 1344.18 2586.04 1296.5 2715 1296.5 2843.96 1296.5 2948.5 1344.18 2948.5 1403 2948.5 1461.82 2843.96 1509.5 2715 1509.5 2586.04 1509.5 2481.5 1461.82 2481.5 1403Z" stroke="#000000" stroke-width="6.875" stroke-linecap="butt" stroke-linejoin="miter" stroke-miterlimit="8" stroke-opacity="1" fill="#BDDAA8" fill-rule="evenodd" fill-opacity="1"/><text fill="#000000" fill-opacity="1" font-family="Times New Roman,Times New Roman_MSFontService,sans-serif" font-style="normal" font-variant="normal" font-weight="400" font-stretch="normal" font-size="78" text-anchor="start" direction="ltr" writing-mode="lr-tb" unicode-bidi="normal" text-decoration="none" transform="matrix(1 0 0 1 2588.97 1389)">Context </text><text fill="#000000" fill-opacity="1" font-family="Times New Roman,Times New Roman_MSFontService,sans-serif" font-style="normal" font-variant="normal" font-weight="400" font-stretch="normal" font-size="78" text-anchor="start" direction="ltr" writing-mode="lr-tb" unicode-bidi="normal" text-decoration="none" transform="matrix(1 0 0 1 2623.64 1472)">Setup</text><text fill="#000000" fill-opacity="1" font-family="Times New Roman,Times New Roman_MSFontService,sans-serif" font-style="normal" font-variant="normal" font-weight="400" font-stretch="normal" font-size="78" text-anchor="start" direction="ltr" writing-mode="lr-tb" unicode-bidi="normal" text-decoration="none" transform="matrix(1 0 0 1 2582.54 816)">Inference</text><path d="M1864.5 458.5C1864.5 405.481 1922.7 362.5 1994.5 362.5 2066.3 362.5 2124.5 405.481 2124.5 458.5 2124.5 511.519 2066.3 554.5 1994.5 554.5 1922.7 554.5 1864.5 511.519 1864.5 458.5Z" stroke="#000000" stroke-width="6.875" stroke-linecap="butt" stroke-linejoin="miter" stroke-miterlimit="8" stroke-opacity="1" fill="#F2F2F2" fill-rule="evenodd" fill-opacity="1"/><rect x="2614.5" y="379.5" width="201" height="191" stroke="#44546A" stroke-width="4.58333" stroke-linecap="butt" stroke-linejoin="miter" stroke-miterlimit="8" stroke-opacity="1" fill="#D9D9D9" fill-opacity="1"/><rect x="2629.5" y="398.5" width="171" height="26.0001" stroke="#44546A" stroke-width="4.58333" stroke-linecap="butt" stroke-linejoin="miter" stroke-miterlimit="8" stroke-opacity="1" fill="#F2F2F2" fill-opacity="1"/><rect x="2629.5" y="441.5" width="172" height="26.0001" stroke="#44546A" stroke-width="4.58333" stroke-linecap="butt" stroke-linejoin="miter" stroke-miterlimit="8" stroke-opacity="1" fill="#F2F2F2" fill-opacity="1"/><rect x="2629.5" y="487.5" width="171" height="26.0001" stroke="#44546A" stroke-width="4.58333" stroke-linecap="butt" stroke-linejoin="miter" stroke-miterlimit="8" stroke-opacity="1" fill="#F2F2F2" fill-opacity="1"/><rect x="2629.5" y="529.5" width="171" height="26.0001" stroke="#44546A" stroke-width="4.58333" stroke-linecap="butt" stroke-linejoin="miter" stroke-miterlimit="8" stroke-opacity="1" fill="#F2F2F2" fill-opacity="1"/><text fill="#000000" fill-opacity="1" font-family="Times New Roman,Times New Roman_MSFontService,sans-serif" font-style="normal" font-variant="normal" font-weight="400" font-stretch="normal" font-size="78" text-anchor="start" direction="ltr" writing-mode="lr-tb" unicode-bidi="normal" text-decoration="none" transform="matrix(1 0 0 1 2887.72 463)">Output</text><text fill="#000000" fill-opacity="1" font-family="Times New Roman,Times New Roman_MSFontService,sans-serif" font-style="normal" font-variant="normal" font-weight="400" font-stretch="normal" font-size="78" text-anchor="start" direction="ltr" writing-mode="lr-tb" unicode-bidi="normal" text-decoration="none" transform="matrix(1 0 0 1 2905.2 557)">Batch</text><path d="M2833 381C2844.6 381 2854 386.072 2854 392.33L2854 462.727C2854 468.984 2863.4 474.057 2875 474.057 2863.4 474.057 2854 479.129 2854 485.387L2854 560.67C2854 566.927 2844.6 572 2833 572" stroke="#000000" stroke-width="5.72917" stroke-linecap="butt" stroke-linejoin="miter" stroke-miterlimit="8" stroke-opacity="1" fill="none" fill-rule="evenodd"/><text fill="#000000" fill-opacity="1" font-family="Times New Roman,Times New Roman_MSFontService,sans-serif" font-style="normal" font-variant="normal" font-weight="400" font-stretch="normal" font-size="78" text-anchor="start" direction="ltr" writing-mode="lr-tb" unicode-bidi="normal" text-decoration="none" transform="matrix(1 0 0 1 1926.39 491)">Sink</text><text fill="#000000" fill-opacity="1" font-family="Cambria Math,Cambria Math_MSFontService,sans-serif" font-style="normal" font-variant="normal" font-weight="400" font-stretch="normal" font-size="165" text-anchor="start" direction="ltr" writing-mode="lr-tb" unicode-bidi="normal" text-decoration="none" transform="matrix(1 0 0 1 1946.58 1083)">ğœ</text><text fill="#000000" fill-opacity="1" font-family="Times New Roman,Times New Roman_MSFontService,sans-serif" font-style="normal" font-variant="normal" font-weight="400" font-stretch="normal" font-size="78" text-anchor="start" direction="ltr" writing-mode="lr-tb" unicode-bidi="normal" text-decoration="none" transform="matrix(1 0 0 1 1856.41 1866)">listings</text><text fill="#000000" fill-opacity="1" font-family="Times New Roman,Times New Roman_MSFontService,sans-serif" font-style="normal" font-variant="normal" font-weight="400" font-stretch="normal" font-size="78" text-anchor="start" direction="ltr" writing-mode="lr-tb" unicode-bidi="normal" text-decoration="none" transform="matrix(1 0 0 1 2220.85 1866)">searches</text><path d="M2140.5 1541.5 2191.5 1574 2140.5 1606.5Z" stroke="#000000" stroke-width="9.16667" stroke-linecap="butt" stroke-linejoin="miter" stroke-miterlimit="8" stroke-opacity="1" fill="#F2F2F2" fill-rule="evenodd" fill-opacity="1"/><path d="M2241.5 1606.5 2191.5 1574 2241.5 1541.5Z" stroke="#000000" stroke-width="9.16667" stroke-linecap="butt" stroke-linejoin="miter" stroke-miterlimit="8" stroke-opacity="1" fill="#F2F2F2" fill-rule="evenodd" fill-opacity="1"/><rect x="2365" y="598" width="85" height="84.9999" fill="#FFFFFF" fill-opacity="1"/><g><g><g><path d="M31.875 66.4062C31.875 64.9394 33.0642 63.7499 34.5312 63.7499L50.4687 63.7499C51.9357 63.7499 53.1249 64.9394 53.1249 66.4062 53.1249 67.873 51.9357 69.0624 50.4687 69.0624L34.5312 69.0624C33.0642 69.0624 31.875 67.873 31.875 66.4062M15.9375 42.8293C15.9375 35.9125 22.4984 30.6265 29.3781 31.2693 38.107 32.084 46.8928 32.084 55.6218 31.2693 62.5015 30.6265 69.0624 35.9125 69.0624 42.8293L69.0624 48.9759C69.107 51.4035 67.3869 53.5064 64.9984 53.9431 60.5093 54.724 52.5671 55.7812 42.5 55.7812 32.4328 55.7812 24.4906 54.7187 20.0015 53.9431 17.6131 53.5064 15.8926 51.4035 15.9375 48.9759ZM40.0668 38.4359C39.6469 38.3644 39.2181 38.4988 38.914 38.7971L34.0265 43.5784C30.7022 43.3802 27.3866 43.056 24.0868 42.6062 23.357 42.5337 22.7064 43.0666 22.6339 43.7965 22.5652 44.488 23.0412 45.1156 23.7256 45.2359 26.6475 45.6396 30.2706 46.0274 34.4568 46.2612 34.8297 46.2822 35.1941 46.1453 35.4609 45.884L39.4665 41.974 43.9662 51.0584C44.2929 51.7151 45.0901 51.9827 45.7468 51.6561 45.8832 51.5883 46.0068 51.4975 46.1124 51.3878L51.0637 46.2346C54.4786 46.0319 57.8849 45.6987 61.2743 45.2359 61.9968 45.1089 62.4792 44.4203 62.3522 43.6979 62.2321 43.0135 61.6047 42.5375 60.9131 42.6062 58.0549 42.9993 54.5009 43.3765 50.3943 43.6103 50.06 43.6289 49.745 43.7731 49.5124 44.014L45.5068 48.1843 41.0337 39.1531C40.8445 38.7733 40.4852 38.5068 40.0668 38.4359Z" fill="#3572A5" fill-rule="nonzero" fill-opacity="1" transform="matrix(1 0 0 1 2367 602)"/><path d="M45.1562 9.91311C47.6971 8.44612 48.5677 5.19704 47.1007 2.65611 45.6337 0.115185 42.3846-0.755399 39.8437 0.711603 37.3028 2.17861 36.4322 5.42767 37.8992 7.96858 38.3654 8.77619 39.0361 9.44684 39.8437 9.91311L39.8437 15.9375 29.2187 15.9375C16.0157 15.9375 5.31249 26.6407 5.31249 39.8437L5.31249 42.5C2.37848 42.5 0 44.8784 1.17961e-15 47.8124L0 58.4374C0 61.3715 2.37848 63.7499 5.31249 63.7499L5.31249 69.0624C5.31249 74.9306 10.0695 79.6874 15.9375 79.6874L69.0624 79.6874C74.9306 79.6874 79.6874 74.9306 79.6874 69.0624L79.6874 63.7499C82.6215 63.7499 84.9999 61.3715 84.9999 58.4374L84.9999 47.8124C84.9999 44.8784 82.6215 42.5 79.6874 42.5L79.6874 39.8437C79.6874 26.6407 68.9843 15.9375 55.7812 15.9375L45.1562 15.9375ZM74.3749 39.8437 74.3749 69.0624C74.3749 71.9965 71.9965 74.3749 69.0624 74.3749L15.9375 74.3749C13.0035 74.3749 10.625 71.9965 10.625 69.0624L10.625 39.8437C10.625 29.5747 18.9497 21.25 29.2187 21.25L55.7812 21.25C66.0502 21.25 74.3749 29.5747 74.3749 39.8437" fill="#3572A5" fill-rule="nonzero" fill-opacity="1" transform="matrix(1 0 0 1 2367 602)"/></g></g></g><rect x="1801" y="605" width="99" height="110" fill="#FFFFFF" fill-opacity="1"/><rect x="1677" y="659" width="54" height="61.9999" fill="#FFFFFF" fill-opacity="1"/><g><g><g><path d="M15.6528 9.74039C18.9733 8.23239 23.693 7.25001 29 7.25001 34.3071 7.25001 39.0268 8.22876 42.3473 9.74039 45.8346 11.3281 47.1251 13.1479 47.1251 14.5 47.1251 15.8558 45.8346 17.6719 42.3473 19.2597 39.0268 20.7677 34.3071 21.75 29 21.75 23.693 21.75 18.9733 20.7713 15.6528 19.2597 12.1655 17.6719 10.875 15.8522 10.875 14.5 10.875 13.1443 12.1655 11.3281 15.6528 9.74039ZM47.1251 20.6553 47.1251 25.375C47.1251 26.7308 45.8346 28.5469 42.3473 30.1347 39.0268 31.6427 34.3071 32.6251 29 32.6251 23.693 32.6251 18.9733 31.6463 15.6528 30.1347 12.1655 28.5469 10.875 26.7272 10.875 25.375L10.875 20.6553C11.8574 21.3875 12.9775 22.0255 14.152 22.5584 18.0453 24.3274 23.2979 25.375 29 25.375 34.7022 25.375 39.9548 24.3274 43.8481 22.5584 45.0048 22.0422 46.1036 21.4042 47.1251 20.6553M50.7501 14.5C50.7501 10.8496 47.5782 8.13814 43.8481 6.44164 39.9548 4.67263 34.7022 3.62501 29 3.62501 23.2979 3.62501 18.0453 4.67263 14.152 6.44164 10.4219 8.13814 7.25001 10.8496 7.25001 14.5L7.25001 47.1251C7.25001 50.7755 10.4219 53.487 14.152 55.1835 18.0453 56.9488 23.2979 58.0001 29 58.0001 34.7022 58.0001 39.9548 56.9525 43.8481 55.1835 47.5782 53.487 50.7501 50.7755 50.7501 47.1251ZM47.1251 31.5303 47.1251 36.2501C47.1251 37.6058 45.8346 39.4219 42.3473 41.0097 39.0268 42.5177 34.3071 43.5001 29 43.5001 23.693 43.5001 18.9733 42.5213 15.6528 41.0097 12.1655 39.4219 10.875 37.6022 10.875 36.2501L10.875 31.5303C11.8574 32.2626 12.9775 32.9006 14.152 33.4334 18.0453 35.1988 23.2979 36.2501 29 36.2501 34.7022 36.2501 39.9548 35.2024 43.8481 33.4334 45.0048 32.9172 46.1036 32.2793 47.1251 31.5303M47.1251 42.4053 47.1251 47.1251C47.1251 48.4808 45.8346 50.297 42.3473 51.8847 39.0268 53.3927 34.3071 54.3751 29 54.3751 23.693 54.3751 18.9733 53.3963 15.6528 51.8847 12.1655 50.297 10.875 48.4772 10.875 47.1251L10.875 42.4053C11.8574 43.1376 12.9775 43.7756 14.152 44.3084 18.0453 46.0738 23.2979 47.1251 29 47.1251 34.7022 47.1251 39.9548 46.0775 43.8481 44.3084 45.0226 43.7756 46.1427 43.1376 47.1251 42.4053" fill="#7F7F7F" fill-rule="nonzero" fill-opacity="1" transform="matrix(1.12069 0 0 1 1845 659)"/></g></g></g><rect x="1816" y="1201" width="83.9999" height="105" fill="#FFFFFF" fill-opacity="1"/><rect x="1761" y="1219" width="54" height="58.0001" fill="#FFFFFF" fill-opacity="1"/><g clip-path="url(#clip0)"><g clip-path="url(#clip1)"><g clip-path="url(#clip2)"><path d="M15.9227 9.90833C19.3004 8.37433 24.1016 7.37502 29.5001 7.37502 34.8986 7.37502 39.6997 8.37064 43.0775 9.90833 46.6249 11.5235 47.9376 13.3746 47.9376 14.75 47.9376 16.1292 46.6249 17.9766 43.0775 19.5917 39.6997 21.1257 34.8986 22.125 29.5001 22.125 24.1016 22.125 19.3004 21.1294 15.9227 19.5917 12.3753 17.9766 11.0625 16.1255 11.0625 14.75 11.0625 13.3709 12.3753 11.5235 15.9227 9.90833ZM47.9376 21.0114 47.9376 25.8126C47.9376 27.1917 46.6249 29.0391 43.0775 30.6543 39.6997 32.1883 34.8986 33.1876 29.5001 33.1876 24.1016 33.1876 19.3004 32.1919 15.9227 30.6543 12.3753 29.0391 11.0625 27.188 11.0625 25.8126L11.0625 21.0114C12.0618 21.7563 13.2013 22.4053 14.396 22.9474 18.3564 24.7469 23.6996 25.8126 29.5001 25.8126 35.3005 25.8126 40.6437 24.7469 44.6041 22.9474 45.7808 22.4223 46.8985 21.7733 47.9376 21.0114M51.6251 14.75C51.6251 11.0367 48.3985 8.27846 44.6041 6.5527 40.6437 4.7532 35.3005 3.68751 29.5001 3.68751 23.6996 3.68751 18.3564 4.7532 14.396 6.5527 10.6016 8.27846 7.37502 11.0367 7.37502 14.75L7.37502 47.9376C7.37502 51.6509 10.6016 54.4092 14.396 56.1349 18.3564 57.9308 23.6996 59.0001 29.5001 59.0001 35.3005 59.0001 40.6437 57.9344 44.6041 56.1349 48.3985 54.4092 51.6251 51.6509 51.6251 47.9376ZM47.9376 32.0739 47.9376 36.8751C47.9376 38.2542 46.6249 40.1017 43.0775 41.7168 39.6997 43.2508 34.8986 44.2501 29.5001 44.2501 24.1016 44.2501 19.3004 43.2545 15.9227 41.7168 12.3753 40.1017 11.0625 38.2505 11.0625 36.8751L11.0625 32.0739C12.0618 32.8188 13.2013 33.4678 14.396 34.0099 18.3564 35.8057 23.6996 36.8751 29.5001 36.8751 35.3005 36.8751 40.6437 35.8094 44.6041 34.0099 45.7808 33.4848 46.8985 32.8358 47.9376 32.0739M47.9376 43.1365 47.9376 47.9376C47.9376 49.3167 46.6249 51.1642 43.0775 52.7793 39.6997 54.3133 34.8986 55.3126 29.5001 55.3126 24.1016 55.3126 19.3004 54.317 15.9227 52.7793 12.3753 51.1642 11.0625 49.313 11.0625 47.9376L11.0625 43.1365C12.0618 43.8813 13.2013 44.5303 14.396 45.0724 18.3564 46.8682 23.6996 47.9376 29.5001 47.9376 35.3005 47.9376 40.6437 46.8719 44.6041 45.0724 45.7989 44.5303 46.9383 43.8813 47.9376 43.1365" fill="#7F7F7F" fill-rule="nonzero" fill-opacity="1" transform="matrix(1.10169 0 0 1 1848 1250)"/></g></g></g><rect x="1841" y="938" width="65" height="64.9999" fill="#FFFFFF" fill-opacity="1"/><g><g><g><path d="M1873.38 995.781C1873.38 994.659 1874.28 993.75 1875.41 993.75L1887.59 993.75C1888.72 993.75 1889.62 994.659 1889.62 995.781 1889.62 996.903 1888.72 997.812 1887.59 997.812L1875.41 997.812C1874.28 997.812 1873.38 996.903 1873.38 995.781M1861.19 977.752C1861.19 972.462 1866.2 968.42 1871.47 968.912 1878.14 969.535 1884.86 969.535 1891.53 968.912 1896.8 968.42 1901.81 972.462 1901.81 977.752L1901.81 982.452C1901.85 984.309 1900.53 985.917 1898.7 986.251 1895.27 986.848 1889.2 987.656 1881.5 987.656 1873.8 987.656 1867.73 986.844 1864.3 986.251 1862.47 985.917 1861.15 984.309 1861.19 982.452ZM1879.64 974.392C1879.32 974.337 1878.99 974.44 1878.76 974.668L1875.02 978.325C1872.48 978.173 1869.94 977.925 1867.42 977.581 1866.86 977.526 1866.36 977.933 1866.31 978.491 1866.26 979.02 1866.62 979.5 1867.14 979.592 1869.38 979.901 1872.15 980.197 1875.35 980.376 1875.63 980.392 1875.91 980.288 1876.12 980.088L1879.18 977.098 1882.62 984.045C1882.87 984.547 1883.48 984.751 1883.98 984.502 1884.09 984.45 1884.18 984.38 1884.26 984.297L1888.05 980.356C1890.66 980.201 1893.27 979.946 1895.86 979.592 1896.41 979.495 1896.78 978.968 1896.68 978.416 1896.59 977.893 1896.11 977.529 1895.58 977.581 1893.4 977.882 1890.68 978.17 1887.54 978.349 1887.28 978.363 1887.04 978.474 1886.86 978.658L1883.8 981.847 1880.38 974.941C1880.23 974.65 1879.96 974.446 1879.64 974.392Z" fill="#3572A5" fill-rule="nonzero" fill-opacity="1"/><path d="M1883.53 952.581C1885.47 951.459 1886.14 948.974 1885.02 947.031 1883.9 945.088 1881.41 944.422 1879.47 945.544 1877.53 946.666 1876.86 949.151 1877.98 951.094 1878.34 951.711 1878.85 952.224 1879.47 952.581L1879.47 957.187 1871.34 957.187C1861.25 957.187 1853.06 965.372 1853.06 975.469L1853.06 977.5C1850.82 977.5 1849 979.319 1849 981.562L1849 989.687C1849 991.931 1850.82 993.75 1853.06 993.75L1853.06 997.812C1853.06 1002.3 1856.7 1005.94 1861.19 1005.94L1901.81 1005.94C1906.3 1005.94 1909.94 1002.3 1909.94 997.812L1909.94 993.75C1912.18 993.75 1914 991.931 1914 989.687L1914 981.562C1914 979.319 1912.18 977.5 1909.94 977.5L1909.94 975.469C1909.94 965.372 1901.75 957.187 1891.66 957.187L1883.53 957.187ZM1905.88 975.469 1905.88 997.812C1905.88 1000.06 1904.06 1001.87 1901.81 1001.87L1861.19 1001.87C1858.94 1001.87 1857.12 1000.06 1857.12 997.812L1857.12 975.469C1857.12 967.616 1863.49 961.25 1871.34 961.25L1891.66 961.25C1899.51 961.25 1905.88 967.616 1905.88 975.469" fill="#3572A5" fill-rule="nonzero" fill-opacity="1"/></g></g></g><rect x="1650" y="1437" width="81.0001" height="97.0002" fill="#FFFFFF" fill-opacity="1"/><rect x="1582" y="1428" width="65" height="69.0001" fill="#FFFFFF" fill-opacity="1"/><g><g><g><path d="M15.9226 9.90827C19.3003 8.37428 24.1014 7.37497 29.4999 7.37497 34.8984 7.37497 39.6995 8.37059 43.0772 9.90827 46.6246 11.5234 47.9373 13.3745 47.9373 14.7499 47.9373 16.1291 46.6246 17.9765 43.0772 19.5916 39.6995 21.1256 34.8984 22.1249 29.4999 22.1249 24.1014 22.1249 19.3003 21.1293 15.9226 19.5916 12.3752 17.9765 11.0625 16.1254 11.0625 14.7499 11.0625 13.3708 12.3752 11.5234 15.9226 9.90827ZM47.9373 21.0113 47.9373 25.8124C47.9373 27.1915 46.6246 29.0389 43.0772 30.6541 39.6995 32.1881 34.8984 33.1874 29.4999 33.1874 24.1014 33.1874 19.3003 32.1917 15.9226 30.6541 12.3752 29.0389 11.0625 27.1878 11.0625 25.8124L11.0625 21.0113C12.0618 21.7562 13.2012 22.4052 14.3959 22.9472 18.3563 24.7467 23.6995 25.8124 29.4999 25.8124 35.3003 25.8124 40.6435 24.7467 44.6038 22.9472 45.7805 22.4221 46.8982 21.7732 47.9373 21.0113M51.6248 14.7499C51.6248 11.0366 48.3983 8.27841 44.6038 6.55266 40.6435 4.75317 35.3003 3.68749 29.4999 3.68749 23.6995 3.68749 18.3563 4.75317 14.3959 6.55266 10.6015 8.27841 7.37497 11.0366 7.37497 14.7499L7.37497 47.9373C7.37497 51.6506 10.6015 54.4089 14.3959 56.1346 18.3563 57.9304 23.6995 58.9998 29.4999 58.9998 35.3003 58.9998 40.6435 57.9341 44.6038 56.1346 48.3983 54.4089 51.6248 51.6506 51.6248 47.9373ZM47.9373 32.0737 47.9373 36.8749C47.9373 38.254 46.6246 40.1014 43.0772 41.7165 39.6995 43.2505 34.8984 44.2498 29.4999 44.2498 24.1014 44.2498 19.3003 43.2542 15.9226 41.7165 12.3752 40.1014 11.0625 38.2503 11.0625 36.8749L11.0625 32.0737C12.0618 32.8186 13.2012 33.4676 14.3959 34.0097 18.3563 35.8055 23.6995 36.8749 29.4999 36.8749 35.3003 36.8749 40.6435 35.8092 44.6038 34.0097 45.7805 33.4846 46.8982 32.8356 47.9373 32.0737M47.9373 43.1362 47.9373 47.9373C47.9373 49.3164 46.6246 51.1639 43.0772 52.779 39.6995 54.313 34.8984 55.3123 29.4999 55.3123 24.1014 55.3123 19.3003 54.3167 15.9226 52.779 12.3752 51.1639 11.0625 49.3127 11.0625 47.9373L11.0625 43.1362C12.0618 43.8811 13.2012 44.5301 14.3959 45.0721 18.3563 46.8679 23.6995 47.9373 29.4999 47.9373 35.3003 47.9373 40.6435 46.8716 44.6038 45.0721 45.7986 44.5301 46.938 43.8811 47.9373 43.1362" fill="#7F7F7F" fill-rule="nonzero" fill-opacity="1" transform="matrix(1.1017 0 0 1 1675 1478)"/></g></g></g><rect x="2033" y="1455" width="75.9999" height="70.9998" fill="#FFFFFF" fill-opacity="1"/><rect x="1499" y="1219" width="49.9999" height="58.0001" fill="#FFFFFF" fill-opacity="1"/><g><g><g><path d="M15.9227 9.90833C19.3004 8.37433 24.1016 7.37502 29.5001 7.37502 34.8986 7.37502 39.6997 8.37064 43.0775 9.90833 46.6249 11.5235 47.9376 13.3746 47.9376 14.75 47.9376 16.1292 46.6249 17.9766 43.0775 19.5917 39.6997 21.1257 34.8986 22.125 29.5001 22.125 24.1016 22.125 19.3004 21.1294 15.9227 19.5917 12.3753 17.9766 11.0625 16.1255 11.0625 14.75 11.0625 13.3709 12.3753 11.5235 15.9227 9.90833ZM47.9376 21.0114 47.9376 25.8126C47.9376 27.1917 46.6249 29.0391 43.0775 30.6543 39.6997 32.1883 34.8986 33.1876 29.5001 33.1876 24.1016 33.1876 19.3004 32.1919 15.9227 30.6543 12.3753 29.0391 11.0625 27.188 11.0625 25.8126L11.0625 21.0114C12.0618 21.7563 13.2013 22.4053 14.396 22.9474 18.3564 24.7469 23.6996 25.8126 29.5001 25.8126 35.3005 25.8126 40.6437 24.7469 44.6041 22.9474 45.7808 22.4223 46.8985 21.7733 47.9376 21.0114M51.6251 14.75C51.6251 11.0367 48.3985 8.27846 44.6041 6.5527 40.6437 4.7532 35.3005 3.68751 29.5001 3.68751 23.6996 3.68751 18.3564 4.7532 14.396 6.5527 10.6016 8.27846 7.37502 11.0367 7.37502 14.75L7.37502 47.9376C7.37502 51.6509 10.6016 54.4092 14.396 56.1349 18.3564 57.9308 23.6996 59.0001 29.5001 59.0001 35.3005 59.0001 40.6437 57.9344 44.6041 56.1349 48.3985 54.4092 51.6251 51.6509 51.6251 47.9376ZM47.9376 32.0739 47.9376 36.8751C47.9376 38.2542 46.6249 40.1017 43.0775 41.7168 39.6997 43.2508 34.8986 44.2501 29.5001 44.2501 24.1016 44.2501 19.3004 43.2545 15.9227 41.7168 12.3753 40.1017 11.0625 38.2505 11.0625 36.8751L11.0625 32.0739C12.0618 32.8188 13.2013 33.4678 14.396 34.0099 18.3564 35.8057 23.6996 36.8751 29.5001 36.8751 35.3005 36.8751 40.6437 35.8094 44.6041 34.0099 45.7808 33.4848 46.8985 32.8358 47.9376 32.0739M47.9376 43.1365 47.9376 47.9376C47.9376 49.3167 46.6249 51.1642 43.0775 52.7793 39.6997 54.3133 34.8986 55.3126 29.5001 55.3126 24.1016 55.3126 19.3004 54.317 15.9227 52.7793 12.3753 51.1642 11.0625 49.313 11.0625 47.9376L11.0625 43.1365C12.0618 43.8813 13.2013 44.5303 14.396 45.0724 18.3564 46.8682 23.6996 47.9376 29.5001 47.9376 35.3005 47.9376 40.6437 46.8719 44.6041 45.0724 45.7989 44.5303 46.9383 43.8813 47.9376 43.1365" fill="#7F7F7F" fill-rule="nonzero" fill-opacity="1" transform="matrix(1.10169 0 0 1 2055 1471)"/></g></g></g><text fill="#000000" fill-opacity="1" font-family="Cambria Math,Cambria Math_MSFontService,sans-serif" font-style="normal" font-variant="normal" font-weight="400" font-stretch="normal" font-size="128" text-anchor="start" direction="ltr" writing-mode="lr-tb" unicode-bidi="normal" text-decoration="none" transform="matrix(1 0 0 1 1957.17 785)">ğ’¢</text></g></g></svg>